<svg version="1.1" id="Layer_1" xmlns="http://www.w3.org/2000/svg" xmlns:xlink="http://www.w3.org/1999/xlink" x="0" y="0" viewBox="0 0 535.4 142.8" xml:space="preserve"><style>.st3{opacity:.1}.st6{fill:#fff}.st7{fill:none}</style><g id="Layer_2_00000075120095114029382830000017676927366500825989_"><g id="Layer_6"><path d="M210 95.2a24.8 24.8 0 0 1-17.8 7.4c-6.5.2-12.7-2.4-17.3-7-3-3-4.9-6.9-5.6-11.1-.5-2.6-.7-7.5-.7-14.5s.2-11.8.7-14.5c.7-4.2 2.6-8 5.6-11.1a23.7 23.7 0 0 1 17.3-7c6.7-.1 13.1 2.6 17.8 7.3l-8.3 8.3c-3-3-6.2-4.5-9.5-4.5a9.7 9.7 0 0 0-8.6 4.2c-1.6 2.3-2.4 8-2.4 17.2 0 5 .1 8.1.2 9.3.4 4 1.4 6.9 3 8.7 2 2.2 4.9 3.5 7.9 3.3 3.3 0 6.5-1.5 9.5-4.5l8.2 8.5zm40.2-36.1-8.8 8.9a8.6 8.6 0 0 0-6.2-2.8 7 7 0 0 0-5.1 2.1 8.5 8.5 0 0 0-2.4 6.6v28.2H216V55.2h11.4v4.5c2.8-3.3 6.8-5 11.8-5 4-.1 8.1 1.5 11 4.4zm37.7 43h-11.4V98a16 16 0 0 1-11.5 4.5c-5.3 0-9.2-1.3-11.9-4a14.5 14.5 0 0 1-4-10.6 13 13 0 0 1 4.1-9.8c2.7-2.6 6.7-3.8 11.9-3.8h11V72c0-4.9-2.9-7.4-8.7-7.4-3.4-.2-6.8 1.3-9 3.9l-7.3-7.3c2-2.3 4.5-4.1 7.3-5.2 3.1-1 6.4-1.5 9.6-1.3 13.3 0 20 5.5 20 16.6l-.1 30.8zm-11.8-17.3v-2.5h-9.2c-4.4 0-6.5 1.8-6.5 5.3s2.2 5.3 6.7 5.4c4 0 6.7-1 8-3 .8-1.6 1.1-3.4 1-5.2zm41.5-19.3h-8.5v36.6h-11.8V65.5h-4.9v-8.9h4.9v-5.9c-.1-3.4 1-6.6 3.2-9.2 2.5-2.8 6-4.2 10.4-4.2h6.7v9.9h-4.5c-2.7 0-4 1.4-4 4.2v5.1h8.5v9zm25.7 36.6h-6.4c-4.4 0-7.9-1.4-10.4-4.2a13.3 13.3 0 0 1-3.2-9.2V65.5h-5v-8.9h5V42.7h11.8v13.9h8.2v8.9h-8.2V88c0 2.8 1.3 4.2 4 4.2h4.2v9.9zm53.3-18.5c0 5.8-1.8 10.3-5.4 13.6a20.6 20.6 0 0 1-14.2 4.9h-26.8V38H376c6.2 0 11 1.6 14.5 4.9 3.5 3.2 5.2 7.6 5.2 13.1a15 15 0 0 1-2.7 8.7 13.3 13.3 0 0 1-5.2 4.5c5.9 2.8 8.8 7.6 8.8 14.4zm-13.4-27c.1-2-.7-4-2.2-5.3a9 9 0 0 0-6.1-2h-12.2V64H375a9 9 0 0 0 6.1-2 7 7 0 0 0 2.1-5.4zm.9 26.4c.1-2.1-.7-4.1-2.1-5.6a8 8 0 0 0-6.2-2.2h-13V91h13c2.3.2 4.5-.7 6.2-2.2a8.5 8.5 0 0 0 2.1-5.8zm57.6-4.4c.1 3.6-.3 7.2-1.1 10.7-.7 2.8-2.2 5.5-4.2 7.6-3.7 3.8-8.5 5.8-14.6 5.8s-10.9-1.9-14.5-5.8c-2-2.1-3.5-4.7-4.2-7.6-.8-3.5-1.2-7.1-1.1-10.7 0-8.4 1.8-14.5 5.4-18.3 3.6-3.8 8.4-5.7 14.4-5.7a19 19 0 0 1 14.5 5.7c3.6 3.8 5.4 9.9 5.4 18.3zm-11.8 0c0-5.8-.9-9.5-2.7-11.3a7.2 7.2 0 0 0-5.4-2.1 7 7 0 0 0-5.3 2.1c-1.8 1.8-2.7 5.6-2.7 11.3s.9 9.6 2.7 11.4a7.6 7.6 0 0 0 5.3 2.1c2 .1 4-.7 5.4-2.1 1.8-1.8 2.7-5.6 2.7-11.4zm56.2 0c.1 3.6-.3 7.2-1.1 10.7-.7 2.8-2.2 5.5-4.2 7.6-3.7 3.8-8.5 5.8-14.6 5.8s-10.9-1.9-14.5-5.7c-2-2.1-3.5-4.7-4.2-7.6-.8-3.5-1.2-7.1-1.1-10.7 0-8.4 1.8-14.5 5.4-18.3 3.6-3.8 8.4-5.7 14.4-5.7s10.9 1.9 14.5 5.7c3.6 3.7 5.4 9.8 5.4 18.2zm-11.8 0c0-5.8-.9-9.5-2.7-11.3a7.2 7.2 0 0 0-5.4-2.1 7 7 0 0 0-5.3 2.1c-1.8 1.8-2.7 5.6-2.7 11.3 0 5.8.9 9.6 2.7 11.4a7 7 0 0 0 5.3 2.1c2 .1 4-.7 5.4-2.1 1.8-1.8 2.7-5.6 2.7-11.4zm61.1 23.5H521l-11.5-19.5-4.9 5.6v13.9h-11.8V38h11.8v36.4L520 55.2h14.1l-16.7 18.9 18 28z" fill="#2d2d2d" stroke="#fff" stroke-miterlimit="10"/><g><defs><path id="SVGID_1_" d="M5 78.4c-3.9-3.9-3.5-10.5.3-14.3L64.2 5.2c3.8-3.9 10.2-4 14.2-.2l58.9 59c3.9 3.9 4 10.9.1 14.7l-58.7 58.7a10.7 10.7 0 0 1-14.7 0l-59-59z"/></defs><clipPath id="SVGID_00000034047417233945373460000011176719047910187950_"><use xlink:href="#SVGID_1_" overflow="visible"/></clipPath><g clip-path="url(#SVGID_00000034047417233945373460000011176719047910187950_)"><linearGradient id="SVGID_00000065753140055863181810000002140109562999612856_" gradientUnits="userSpaceOnUse" x1="82.5" y1="143.5" x2="82.5" y2="5" gradientTransform="matrix(1 0 0 -1 0 144)"><stop offset="0" stop-color="#636"/><stop offset="1" stop-color="#943366"/></linearGradient><path d="M82.5 80c1.9 0 3.4-1.5 3.4-3.4s-1.5-3.4-3.4-3.4-3.4 1.5-3.4 3.4 1.6 3.4 3.4 3.4z" fill="url(#SVGID_00000065753140055863181810000002140109562999612856_)"/><g><g class="st3"><path d="M82.5 80c1.9 0 3.4-1.5 3.4-3.4s-1.5-3.4-3.4-3.4-3.4 1.5-3.4 3.4 1.6 3.4 3.4 3.4z"/></g></g><linearGradient id="SVGID_00000015324925222162721560000014906660716858572210_" gradientUnits="userSpaceOnUse" x1="99.9" y1="143.5" x2="99.9" y2="5" gradientTransform="matrix(1 0 0 -1 0 144)"><stop offset="0" stop-color="#636"/><stop offset="1" stop-color="#943366"/></linearGradient><path d="M99.9 92.8c-1.9 0-3.4 1.5-3.4 3.4s1.5 3.4 3.4 3.4 3.4-1.5 3.4-3.4-1.5-3.4-3.4-3.4z" fill="url(#SVGID_00000015324925222162721560000014906660716858572210_)"/><g><g class="st3"><path d="M99.9 92.8c-1.9 0-3.4 1.5-3.4 3.4s1.5 3.4 3.4 3.4 3.4-1.5 3.4-3.4-1.5-3.4-3.4-3.4z"/></g></g><linearGradient id="SVGID_00000169535841830666632200000008867529066604180123_" gradientUnits="userSpaceOnUse" x1="106.5" y1="143.5" x2="106.5" y2="5" gradientTransform="matrix(1 0 0 -1 0 144)"><stop offset="0" stop-color="#636"/><stop offset="1" stop-color="#943366"/></linearGradient><path d="M106.5 66.9c-1.9 0-3.4 1.5-3.4 3.4s1.5 3.4 3.4 3.4 3.4-1.5 3.4-3.4-1.5-3.4-3.4-3.4z" fill="url(#SVGID_00000169535841830666632200000008867529066604180123_)"/><g><g class="st3"><path d="M106.5 66.9c-1.9 0-3.4 1.5-3.4 3.4s1.5 3.4 3.4 3.4 3.4-1.5 3.4-3.4-1.5-3.4-3.4-3.4z"/></g></g><path class="st6" d="M27.6 71.4 17 90.3l17.3 17.4 13.9-24.8zM53.3 60c-1.7-2.7-1.6-6.7-.8-10.9l-4.1-2.3c.7 3.9.6 7.5-.9 10-.9 1.5-2.8 3.3-6.6 3.3a9.3 9.3 0 0 1-5.7-2.3l-5.5 10 20.6 11.5 8.9-16a7.4 7.4 0 0 1-5.9-3.3z"/><path class="st6" d="M55.4 50.8c-.5 3.1-.5 5.9.6 7.6.5.8 1.4 1.8 3.9 1.8l1.1-.1c1.1-.1 2.2-.7 2.8-1.7 2.6-4.3-1.1-15.1-3.9-21.4-2 4.3-3.5 9-4.5 13.8zm-24.8.8c.5.8 1.4 1.4 3.9 1.4h.1l1.7.2.1.4.6.2V55c1 1.1 2.4 1.7 3.9 1.9 2.5 0 3.4-1 3.9-1.8 1.4-2.2 1-6.2 0-10.4a84 84 0 0 0-3.8-11l-1.1 2.7-1.6 4-1.4-4-1-2.7-4 4c-1.9 5.3-3.1 11-1.3 13.9zm4.6 3.7zm0 0c.2 0 .1 0 0 0zm73.2 40.9c0-4.7-3.8-8.6-8.5-8.6h-.1a8.4 8.4 0 0 0-8.4 8.5v.2c0 2.5 1.1 4.8 3.1 6.4v19l11-11v-8.2c1.9-1.6 3-3.9 2.9-6.3zm-8.5 3.4c-1.9 0-3.4-1.5-3.4-3.4s1.5-3.4 3.4-3.4 3.4 1.5 3.4 3.4-1.5 3.4-3.4 3.4zM141.4 68l-3-3h-25.5a8 8 0 0 0-6.4-3.1 8.4 8.4 0 0 0-8.6 8.4v.1c0 4.8 3.8 8.7 8.6 8.7 2.6.1 5.1-1.1 6.7-3.1h22.4v4.5l5.8-5.8a4.8 4.8 0 0 0 0-6.7zm-34.9 5.7c-1.9 0-3.4-1.5-3.4-3.4s1.5-3.4 3.4-3.4 3.4 1.5 3.4 3.4-1.5 3.4-3.4 3.4zm-5.9-30.9c0 3.2 2.5 6.2 5.8 6.2h16l-21.8-21.8v15.6zM77.5 70.1a8.2 8.2 0 0 0-3.3 6.5 8.5 8.5 0 1 0 17 0 7 7 0 0 0-2.6-6V15.2L78.1 4.7c-.4.8-.6 1.8-.6 2.7v62.7zm5 3.1c1.9 0 3.4 1.5 3.4 3.4S84.4 80 82.5 80s-3.4-1.5-3.4-3.4c0-1.8 1.5-3.4 3.4-3.4z"/><path class="st7" d="M53.3 60c-1.7-2.7-1.6-6.7-.8-10.9l-4.1-2.3c.7 3.9.6 7.5-.9 10-.9 1.5-2.8 3.3-6.6 3.3a9.3 9.3 0 0 1-5.7-2.3l-5.5 10 20.6 11.5 8.9-16a7.4 7.4 0 0 1-5.9-3.3zm-18.1-4.7c.2 0 .1 0 0 0zm0 0z"/><path class="st7" d="M55.4 50.8c-.5 3.1-.5 5.9.6 7.6.5.8 1.4 1.8 3.9 1.8l1.1-.1c1.1-.1 2.2-.7 2.8-1.7 2.6-4.3-1.1-15.1-3.9-21.4-2 4.3-3.5 9-4.5 13.8z"/><linearGradient id="SVGID_00000086686757284806247270000006922593130121125822_" gradientUnits="userSpaceOnUse" x1="61.8" y1="142.8" x2="61.8" y2=".7" gradientTransform="matrix(1 0 0 -1 0 144)"><stop offset="0" stop-color="#636"/><stop offset="1" stop-color="#943366"/></linearGradient><path d="M61.8 88.8a3.4 3.4 0 0 0-3.4 3.4c0 1.9 1.5 3.4 3.4 3.4s3.4-1.5 3.4-3.4-1.5-3.4-3.4-3.4z" fill="url(#SVGID_00000086686757284806247270000006922593130121125822_)"/><linearGradient id="SVGID_00000116225118109373824370000000357121628018018742_" gradientUnits="userSpaceOnUse" x1="69.2" y1="142.8" x2="69.2" y2="4.8" gradientTransform="matrix(1 0 0 -1 0 144)"><stop offset="0" stop-color="#636"/><stop offset="1" stop-color="#943366"/></linearGradient><path d="M106.4 79.2a8.6 8.6 0 0 1-8.6-8.7c0-4.7 3.9-8.5 8.6-8.4a8 8 0 0 1 6.4 3.1h25.5l-16-16h-16a6 6 0 0 1-5.8-6.2V27.2l-12-12v55.4a7 7 0 0 1 2.6 6 8.5 8.5 0 1 1-17 0c0-2.6 1.3-5 3.3-6.5V7.4c0-.9.2-1.9.6-2.7l-3.4-3.3a4.6 4.6 0 0 0-6.7 0L35.7 33.7l1 2.7 1.4 4 1.6-4 1.1-2.7c1.6 3.6 2.9 7.2 3.8 11 1 4.2 1.4 8.2 0 10.4-.5.8-1.4 1.8-3.9 1.8a6 6 0 0 1-3.9-1.9v-1.3l-.6-.2-.1-.2h-1.8c-2.5 0-3.4-.9-3.9-1.6-1.8-2.9-.6-8.7 1.1-14L1.4 68.1a4.6 4.6 0 0 0 0 6.7L17 90.4l10.6-19 20.6 11.5-13.9 24.8 23.4 23.4L68 141.4a4.6 4.6 0 0 0 5.2 1v-29.6l-12-12.1a8.6 8.6 0 1 1 9.2-8.6l-.1 1 13.1 13a6 6 0 0 1 1.8 4.2V131l.3-.3 9-9v-19a8 8 0 0 1-3.1-6.4 8.5 8.5 0 0 1 8.2-8.6h.2c4.7 0 8.5 3.9 8.5 8.6.1 2.4-.9 4.7-2.8 6.2l-.2 8.2 29.9-30v-4.6h-22.3a7.9 7.9 0 0 1-6.5 3.1zM35.2 55.3c.1 0 .2 0 0 0zm15 23.9L29.6 67.7l5.5-9.9a9.3 9.3 0 0 0 5.7 2.3c3.8 0 5.7-1.8 6.6-3.3 1.5-2.5 1.6-6.2.9-10l4.1 2.3c-.8 4.2-.9 8.2.8 10.9a7 7 0 0 0 5.9 3.2l-8.9 16zm13.5-20.8c-.6 1-1.7 1.6-2.8 1.6l-1.1.1c-2.5 0-3.4-1-3.9-1.8-1.1-1.7-1.1-4.5-.6-7.6 1-4.8 2.4-9.4 4.4-13.8 2.9 6.4 6.7 17.2 4 21.5z" fill="url(#SVGID_00000116225118109373824370000000357121628018018742_)"/><g><g class="st3"><path d="M106.4 79.2a8.6 8.6 0 0 1-8.6-8.7c0-4.7 3.9-8.5 8.6-8.4a8 8 0 0 1 6.4 3.1h25.5l-16-16h-16a6 6 0 0 1-5.8-6.2V27.2l-12-12v55.4a7 7 0 0 1 2.6 6 8.5 8.5 0 1 1-17 0c0-2.6 1.3-5 3.3-6.5V7.4c0-.9.2-1.9.6-2.7l-3.4-3.3a4.6 4.6 0 0 0-6.7 0L35.7 33.7l1 2.7 1.4 4 1.6-4 1.1-2.7c1.6 3.6 2.9 7.2 3.8 11 1 4.2 1.4 8.2 0 10.4-.5.8-1.4 1.8-3.9 1.8a6 6 0 0 1-3.9-1.9v-1.3l-.6-.2-.1-.2h-1.8c-2.5 0-3.4-.9-3.9-1.6-1.8-2.9-.6-8.7 1.1-14L1.4 68.1a4.6 4.6 0 0 0 0 6.7L17 90.4l10.6-19 20.6 11.5-13.9 24.8 23.4 23.4L68 141.4a4.6 4.6 0 0 0 5.2 1v-29.6l-12-12.1a8.6 8.6 0 1 1 9.2-8.6l-.1 1 13.1 13a6 6 0 0 1 1.8 4.2V131l.3-.3 9-9v-19a8 8 0 0 1-3.1-6.4 8.5 8.5 0 0 1 8.2-8.6h.2c4.7 0 8.5 3.9 8.5 8.6.1 2.4-.9 4.7-2.8 6.2l-.2 8.2 29.9-30v-4.6h-22.3a7.9 7.9 0 0 1-6.5 3.1zM35.2 55.3c.1 0 .2 0 0 0zm15 23.9L29.6 67.7l5.5-9.9a9.3 9.3 0 0 0 5.7 2.3c3.8 0 5.7-1.8 6.6-3.3 1.5-2.5 1.6-6.2.9-10l4.1 2.3c-.8 4.2-.9 8.2.8 10.9a7 7 0 0 0 5.9 3.2l-8.9 16zm13.5-20.8c-.6 1-1.7 1.6-2.8 1.6l-1.1.1c-2.5 0-3.4-1-3.9-1.8-1.1-1.7-1.1-4.5-.6-7.6 1-4.8 2.4-9.4 4.4-13.8 2.9 6.4 6.7 17.2 4 21.5z"/></g></g><path class="st6" d="m83.5 106.2-13.1-13 .1-1a8.6 8.6 0 1 0-9.1 8.6l12 12.1v29.6c0-.2 1.1-.6 1.6-1.1L85.3 131v-20.6a6.4 6.4 0 0 0-1.8-4.2zM61.8 95.5a3.4 3.4 0 0 1-3.4-3.4c0-1.9 1.5-3.4 3.4-3.4s3.4 1.5 3.4 3.4-1.5 3.4-3.4 3.4z"/></g></g></g></g></svg>